<svg width="23" height="17" viewBox="0 0 23 17" fill="none" xmlns="http://www.w3.org/2000/svg">
<path d="M20.3156 0.332031H2.68593C1.71992 0.332031 0.753906 1.29804 0.753906 2.50555V14.0977C0.753906 15.3052 1.71992 16.2712 2.68593 16.2712H20.3156C21.5231 16.2712 22.4891 15.3052 22.4891 14.0977V2.50555C22.4891 1.29804 21.5231 0.332031 20.3156 0.332031ZM19.8326 2.02255L12.1045 8.78462C11.6215 9.02612 11.1385 9.02612 10.897 8.78462L3.41044 2.02255H19.8326ZM2.20292 3.23006L7.99898 8.30162L2.20292 12.4072V3.23006ZM20.3156 14.5807H2.68593C2.44442 14.5807 2.44442 14.3392 2.20292 14.3392L9.2065 9.26763L9.93101 9.99214C10.414 10.4751 10.897 10.7166 11.6215 10.7166C12.1045 10.7166 12.829 10.4751 13.312 9.99214L14.0366 9.50913L21.0401 14.5807C20.7986 14.5807 20.5571 14.5807 20.3156 14.5807ZM20.7986 12.4072L15.0026 8.30162L20.7986 3.23006V12.4072Z" fill="#846A61"/>
</svg>
