<svg width="382" height="323" viewBox="0 0 382 323" fill="none" xmlns="http://www.w3.org/2000/svg">
<path d="M183.941 321.083L183.944 321.083C198.585 320.379 213.143 318.477 227.473 315.396C315.803 296.356 380.044 234.47 380.044 161.531C380.044 117.53 356.701 77.5905 318.755 48.6032C280.808 19.6148 228.319 1.64246 170.281 1.64246C141.159 1.64246 121.254 4.02559 106.938 9.1517C92.7107 14.2461 83.9618 22.0645 77.1645 33.1225C70.6179 43.7726 65.8903 57.4001 59.9125 74.6314C59.6257 75.4581 59.336 76.2932 59.0431 77.1366C52.6643 95.5038 44.8108 117.665 31.9821 144.028L31.7759 144.451C22.3121 163.899 10.2187 188.751 4.89971 212.336C-0.464906 236.123 1.17474 258.057 18.6622 271.994L18.6625 271.995C24.1221 276.348 29.8092 280.409 35.6999 284.158L35.7022 284.16C38.92 286.217 42.2179 288.197 45.5958 290.102L45.5965 290.103C72.6357 305.37 104.672 315.802 139.506 319.71L139.339 321.2L139.506 319.71C143.087 320.112 146.699 320.442 150.341 320.702L150.344 320.702C156.909 321.18 163.554 321.419 170.281 321.419L183.941 321.083ZM183.941 321.083C183.223 321.119 182.518 321.154 181.809 321.18L181.801 321.18M183.941 321.083L181.801 321.18M181.801 321.18C177.99 321.338 174.15 321.417 170.281 321.419L181.801 321.18Z" fill="#F5CFAB" stroke="#F5CFAB" stroke-width="3"/>
</svg>
