<svg width="93" height="94" viewBox="0 0 93 94" fill="none" xmlns="http://www.w3.org/2000/svg">
<g clip-path="url(#clip0)">
<path fill-rule="evenodd" clip-rule="evenodd" d="M85.0521 85.9561H7.76042C3.49392 85.9561 0.03125 82.4934 0.03125 78.2269V31.8519C0.03125 27.5854 3.49392 24.1227 7.76042 24.1227H14.0442L14.3457 25.2164C15.0954 27.655 16.3475 29.9351 18.017 31.8519H9.69271C8.62608 31.8519 7.76042 32.7176 7.76042 33.7842V55.0394H85.0521V33.7842C85.0521 32.7176 84.1864 31.8519 83.1198 31.8519H74.7955C76.7162 29.653 78.092 26.9671 78.7721 24.1227H85.0521C89.3186 24.1227 92.7812 27.5854 92.7812 31.8519V78.2269C92.7812 82.4934 89.3186 85.9561 85.0521 85.9561ZM7.76042 66.6332V76.2946C7.76042 77.3612 8.62608 78.2269 9.69271 78.2269H83.1198C84.1864 78.2269 85.0521 77.3612 85.0521 76.2946V66.6332H7.76042ZM42.1977 47.3102H30.9479C33.2048 42.066 35.9526 36.3657 38.6771 31.8519C36.1767 31.848 32.602 31.879 30.9479 31.8519C22.8284 31.7166 19.4044 24.8725 19.3542 20.2582C19.2923 14.3299 24.011 8.63735 30.9479 8.6644C36.7409 8.68759 41.8229 12.0343 46.4062 17.6032C50.9896 12.0343 56.0716 8.68759 61.8646 8.6644C68.8054 8.63735 73.5202 14.3299 73.4583 20.2582C73.4081 24.8725 69.9841 31.7166 61.8646 31.8519C60.2105 31.879 56.6358 31.848 54.1354 31.8519C56.9913 36.4817 59.8975 42.5645 61.8646 47.3102H50.6148C49.6834 42.5259 47.9096 37.0614 46.4062 34.2325C44.9068 37.0614 42.9204 43.4804 42.1977 47.3102ZM32.3314 16.4013C27.9606 16.4013 26.5075 23.8136 32.7952 24.1227C33.7111 24.1691 41.4325 24.1227 41.4325 24.1227C37.425 18.5577 35.5584 16.4013 32.3314 16.4013ZM60.4308 16.4013C64.8017 16.4013 66.2547 23.8136 59.9671 24.1227C59.0512 24.1691 51.38 24.1227 51.38 24.1227C55.3875 18.5577 57.2039 16.4013 60.4308 16.4013Z" fill="#846A61"/>
</g>
<defs>
<clipPath id="clip0">
<rect width="92.75" height="92.75" fill="white" transform="translate(0.03125 0.935059)"/>
</clipPath>
</defs>
</svg>
